<mxfile host="Electron" modified="2023-11-08T14:57:24.064Z" agent="Mozilla/5.0 (Windows NT 10.0; Win64; x64) AppleWebKit/537.36 (KHTML, like Gecko) draw.io/22.0.3 Chrome/114.0.5735.289 Electron/25.8.4 Safari/537.36" etag="zfd028aOhsFmDRLIP4-m" version="22.0.3" type="device">
  <diagram name="第 1 页" id="Tfp3qGCL7geh_nBhCS2r">
    <mxGraphModel dx="1418" dy="948" grid="1" gridSize="10" guides="1" tooltips="1" connect="1" arrows="1" fold="1" page="1" pageScale="1" pageWidth="827" pageHeight="1169" math="0" shadow="0">
      <root>
        <mxCell id="0" />
        <mxCell id="1" parent="0" />
        <mxCell id="lmQp1rCBFB4joTIIVkR1-5" style="edgeStyle=orthogonalEdgeStyle;rounded=0;orthogonalLoop=1;jettySize=auto;html=1;entryX=0;entryY=0.5;entryDx=0;entryDy=0;exitX=1;exitY=0.5;exitDx=0;exitDy=0;" parent="1" source="lmQp1rCBFB4joTIIVkR1-9" target="lmQp1rCBFB4joTIIVkR1-3" edge="1">
          <mxGeometry relative="1" as="geometry">
            <mxPoint x="330" y="360" as="sourcePoint" />
          </mxGeometry>
        </mxCell>
        <mxCell id="lmQp1rCBFB4joTIIVkR1-6" style="edgeStyle=orthogonalEdgeStyle;rounded=0;orthogonalLoop=1;jettySize=auto;html=1;exitX=1;exitY=0.5;exitDx=0;exitDy=0;" parent="1" source="lmQp1rCBFB4joTIIVkR1-9" target="lmQp1rCBFB4joTIIVkR1-4" edge="1">
          <mxGeometry relative="1" as="geometry">
            <mxPoint x="330" y="360" as="sourcePoint" />
          </mxGeometry>
        </mxCell>
        <mxCell id="lmQp1rCBFB4joTIIVkR1-8" style="edgeStyle=orthogonalEdgeStyle;rounded=0;orthogonalLoop=1;jettySize=auto;html=1;entryX=0;entryY=0.5;entryDx=0;entryDy=0;" parent="1" source="lmQp1rCBFB4joTIIVkR1-9" target="lmQp1rCBFB4joTIIVkR1-7" edge="1">
          <mxGeometry relative="1" as="geometry">
            <mxPoint x="330" y="360" as="sourcePoint" />
          </mxGeometry>
        </mxCell>
        <mxCell id="lmQp1rCBFB4joTIIVkR1-3" value="背景与原理" style="rounded=0;whiteSpace=wrap;html=1;" parent="1" vertex="1">
          <mxGeometry x="420" y="190" width="120" height="60" as="geometry" />
        </mxCell>
        <mxCell id="lmQp1rCBFB4joTIIVkR1-4" value="问题是什么？" style="rounded=0;whiteSpace=wrap;html=1;" parent="1" vertex="1">
          <mxGeometry x="420" y="330" width="120" height="60" as="geometry" />
        </mxCell>
        <mxCell id="lmQp1rCBFB4joTIIVkR1-7" value="怎样执行？" style="rounded=0;whiteSpace=wrap;html=1;" parent="1" vertex="1">
          <mxGeometry x="420" y="480" width="120" height="60" as="geometry" />
        </mxCell>
        <mxCell id="lmQp1rCBFB4joTIIVkR1-9" value="" style="shape=image;verticalLabelPosition=bottom;labelBackgroundColor=default;verticalAlign=top;aspect=fixed;imageAspect=0;image=https://pic2.zhimg.com/v2-710f4879f594885c9804742c9ebc1d01_b.jpg;" parent="1" vertex="1">
          <mxGeometry x="160" y="236" width="186.39" height="248" as="geometry" />
        </mxCell>
      </root>
    </mxGraphModel>
  </diagram>
</mxfile>
